# xmcd
#
# Track frame offsets: 
#        150
#        17515
#        30609
#        45204
#        57790
#        77522
#        95328
#        110312
#        120436
#        140218
#        157015
#        173909
#        190117
#
# Disc length: 2819 seconds
#
# Revision: 0
# Processed by: cddbd v1.5.2PL0 Copyright (c) Steve Scherf et al.
# Submitted via: ExactAudioCopy v1.0b1
#
DISCID=980b010d
DTITLE=Various Artist - A Woman's Heart Then And Now [Disc 2 Of 2]
DYEAR=2011
DGENRE=
TTITLE0=Wallis Bird - To My Bones
TTITLE1=Julie Feeney - Impossibly Beautiful
TTITLE2=Stellarsound Featuring Paula Flynn - Let's Dance
TTITLE3=Imelda May - Big Bad Handsome Man
TTITLE4=Lisa Hannigan - Ocean And A Rock
TTITLE5=Cathy Davey - Little Red
TTITLE6=Gemma Hayes - Oliver
TTITLE7=Heathers - Remember When
TTITLE8=Róisín O - Drifting
TTITLE9=Luan Parle - Sexy Sita
TTITLE10=Maria Doyle Kennedy - Stars Above
TTITLE11=Michelle Ann Kelly - Designer Love
TTITLE12=Lumiere - Fair And Tender Ladies
EXTD=
EXTT0=
EXTT1=
EXTT2=
EXTT3=
EXTT4=
EXTT5=
EXTT6=
EXTT7=
EXTT8=
EXTT9=
EXTT10=
EXTT11=
EXTT12=
PLAYORDER=
